<svg id="Capa_1" enable-background="new 0 0 512 512" height="512" viewBox="0 0 512 512" width="512" xmlns="http://www.w3.org/2000/svg"><g><path d="m461.283 71.778c-13.299-13.3-28.379-24.173-44.7-32.398 32.859 37.009 50.83 84.211 50.83 134.229 0 54.125-21.028 104.962-59.211 143.144-22.676 22.676-50.123 39.484-80.275 49.311l1.542 1.542c15.17.8 30.46-.378 45.497-3.584 32.719-6.973 62.567-23.214 86.319-46.967 67.621-67.624 67.621-177.655-.002-245.277z"/><path d="m168.441 373.587-59.194 59.194 26.691 26.691 87.7-87.7c-5.475-1.144-10.91-2.508-16.29-4.106z"/><circle cx="305.265" cy="460.417" r="51.411"/><path d="m255.879 346.796c15.17.8 30.46-.378 45.497-3.584 32.719-6.973 62.567-23.214 86.319-46.967 67.623-67.622 67.623-177.653 0-245.275-32.757-32.757-76.311-50.798-122.637-50.798s-89.88 18.041-122.638 50.798c-23.752 23.753-39.993 53.601-46.966 86.319-3.205 15.037-4.384 30.328-3.584 45.497z"/><path d="m100.023 233.357-7.706 50.641-92.317 92.316 62.351 62.351 92.316-92.316 50.642-7.706z"/></g></svg>